# xmcd
#
# Track frame offsets:
#	150
#	17376
#	30137
#	43961
#	60953
#	79342
#	94847
#	107886
#	122844
#	135178
#
# Disc length: 2066 seconds
#
# Revision: 0
# Processed by: cddbd v1.5.2PL0 Copyright (c) Steve Scherf et al.
# Submitted via: EasyCDDAExtractor 12.1.0.1
#
DISCID=7108100a
DTITLE=Various Artist - Pure 70's Party - CD 1
DYEAR=2005
DGENRE=Pop
TTITLE0=Abba - Dancing Queen
TTITLE1=Monkees - Daydream Believer
TTITLE2=Showaddywaddy - Under The Moon Of Love
TTITLE3=Gary Glitter - I'm The Leader Of The Gang
TTITLE4=Mud - Tiger Feet
TTITLE5=T Rex - Telegram Sam
TTITLE6=Sweet - Blockbuster
TTITLE7=Candi Staton - Young Hearts Run Free
TTITLE8=Three Degrees - When Will I See You Again
TTITLE9=10CC - Dreadlock Holiday
EXTD=
EXTT0=
EXTT1=
EXTT2=
EXTT3=
EXTT4=
EXTT5=
EXTT6=
EXTT7=
EXTT8=
EXTT9=
PLAYORDER=
